<?xml version="1.0" standalone="no"?>
<!DOCTYPE svg PUBLIC "-//W3C//DTD SVG 20010904//EN"
 "http://www.w3.org/TR/2001/REC-SVG-20010904/DTD/svg10.dtd">
<svg version="1.0" xmlns="http://www.w3.org/2000/svg"
 width="300.000000pt" height="222.000000pt" viewBox="0 0 300.000000 222.000000"
 preserveAspectRatio="xMidYMid meet">
<metadata>
Created by potrace 1.10, written by Peter Selinger 2001-2011
</metadata>
<g transform="translate(0.000000,222.000000) scale(0.100000,-0.100000)"
fill="#000000" stroke="none">
<path d="M1860 2118 c0 -6 -11 -8 -25 -6 -17 4 -25 1 -25 -9 0 -10 6 -12 19
-8 28 9 212 10 238 1 13 -4 30 -3 40 3 14 8 10 10 -22 16 -57 10 -56 10 -105
2 -25 -4 -62 -3 -82 2 -25 6 -38 5 -38 -1z"/>
<path d="M2220 1973 c10 -20 17 -40 14 -45 -3 -4 0 -8 5 -8 6 0 11 -5 11 -11
0 -6 -8 -8 -17 -5 -14 5 -13 2 3 -11 47 -38 60 -104 28 -130 -10 -7 -12 -13
-5 -18 12 -7 13 -130 2 -180 -3 -16 -13 -30 -20 -30 -22 0 -31 -50 -30 -150 1
-59 7 -98 16 -113 18 -29 29 -22 13 8 -20 36 3 42 38 9 18 -17 30 -34 27 -38
-5 -9 32 -47 39 -40 5 5 10 66 7 91 0 9 -25 30 -55 47 -52 29 -95 67 -48 42
25 -13 32 -14 32 -2 0 5 -9 12 -19 16 -11 3 -22 13 -25 21 -5 12 -1 14 15 9
16 -5 20 -3 16 6 -2 8 -10 13 -16 11 -7 -1 -10 9 -9 26 3 41 31 31 53 -19 10
-21 21 -39 25 -39 4 0 5 -11 2 -25 -2 -14 -8 -22 -13 -19 -14 8 -10 -6 5 -22
40 -39 43 16 6 102 -27 64 -32 109 -21 227 8 94 7 116 -9 170 -30 99 -46 138
-61 148 -26 17 -29 9 -9 -28z m69 -655 c7 -11 10 -22 7 -25 -8 -9 -26 7 -42
38 -14 28 -14 29 4 18 11 -7 25 -21 31 -31z"/>
<path d="M1776 1921 c-10 -11 -15 -24 -12 -30 3 -5 0 -12 -6 -14 -7 -3 -8 -6
-3 -6 6 -1 23 15 38 34 30 38 15 51 -17 16z"/>
<path d="M1647 1914 c-4 -4 -7 -18 -7 -30 0 -13 -10 -33 -22 -45 -16 -15 -19
-23 -10 -26 7 -3 12 -25 12 -61 0 -31 4 -74 9 -94 12 -52 -5 -189 -30 -243
-15 -31 -34 -52 -66 -70 -49 -29 -63 -28 -41 4 8 12 17 19 20 16 3 -3 10 7 17
22 l13 28 -30 -28 c-17 -16 -32 -30 -35 -30 -10 -4 -40 30 -57 66 l-20 40 45
48 c25 27 45 54 45 61 0 7 -8 2 -16 -12 -9 -14 -35 -39 -57 -57 -39 -30 -42
-31 -45 -13 -2 11 -7 18 -12 15 -5 -3 -11 4 -15 15 -4 11 -10 18 -15 15 -13
-8 -20 37 -8 59 9 19 7 18 -17 -4 -21 -19 -18 -11 15 34 38 52 88 156 75 156
-11 0 -44 -44 -39 -52 3 -5 0 -15 -6 -23 -7 -8 -9 -15 -5 -15 4 0 -12 -23 -34
-52 -44 -55 -46 -74 -10 -114 11 -11 19 -25 19 -31 0 -6 7 -14 16 -17 8 -3 12
-11 8 -18 -5 -7 -1 -9 13 -6 16 4 24 -4 42 -43 13 -26 31 -56 40 -66 9 -10 20
-26 24 -36 6 -15 10 -16 29 -6 13 6 33 21 46 32 l22 20 0 -25 c0 -26 20 -33
37 -13 4 4 2 5 -4 1 -19 -10 -16 3 12 59 13 27 30 65 37 83 12 30 37 40 30 12
-2 -11 0 -11 11 -2 12 10 11 23 -9 84 -13 40 -24 96 -24 125 0 46 3 53 20 53
14 0 18 5 13 16 -3 9 -13 14 -24 11 -28 -7 -34 30 -14 91 16 49 17 81 2 66z"/>
<path d="M1462 1894 c-18 -13 -59 -74 -49 -74 1 0 20 20 40 45 41 49 43 53 9
29z"/>
<path d="M1862 1824 c-15 -52 -29 -81 -38 -81 -8 0 -14 11 -14 26 0 34 -26 71
-49 71 -18 0 -61 -42 -61 -60 0 -5 6 -7 13 -4 8 3 20 -2 27 -10 7 -9 30 -21
52 -27 31 -8 38 -14 33 -27 -3 -9 -9 -30 -11 -47 -4 -19 4 -8 21 30 44 100 57
142 53 177 -3 28 -6 21 -26 -48z"/>
<path d="M2036 1889 c-4 -10 2 -33 13 -55 12 -21 21 -44 21 -50 0 -6 6 -17 14
-23 11 -9 12 -6 8 14 -2 14 -8 28 -13 31 -5 3 -9 13 -9 22 -1 9 -7 31 -14 47
-11 24 -15 27 -20 14z"/>
<path d="M2145 1887 c-12 -9 -18 -31 -21 -71 -6 -75 0 -83 41 -52 22 17 40 24
51 19 15 -6 14 -2 -5 25 -12 18 -31 37 -43 43 -18 10 -19 11 -2 23 10 8 13 15
7 19 -6 4 -18 1 -28 -6z"/>
<path d="M1585 1871 c-20 -8 -20 -8 0 -13 13 -3 6 -7 -22 -12 -42 -8 -67 -32
-33 -32 10 0 16 4 14 8 -5 8 10 12 33 9 12 -2 26 16 29 37 1 6 2 12 1 11 -1 0
-11 -4 -22 -8z"/>
<path d="M1587 1765 c-10 -21 -16 -40 -13 -42 7 -7 38 56 34 68 -2 6 -11 -6
-21 -26z"/>
<path d="M2490 1785 c0 -8 6 -29 14 -47 8 -18 27 -64 43 -103 15 -38 29 -62
31 -53 2 9 -4 33 -12 53 -20 46 -20 51 -1 35 18 -15 18 -14 2 30 -13 38 -77
108 -77 85z"/>
<path d="M1390 1698 c-6 -18 -18 -45 -26 -60 -18 -34 -18 -43 1 -24 8 8 15 19
15 25 0 6 7 11 15 11 8 0 15 8 15 18 0 14 -2 15 -10 2 -14 -21 -13 5 1 32 6
11 9 22 6 24 -2 3 -10 -10 -17 -28z"/>
<path d="M2196 1700 c-19 -21 -25 -37 -21 -51 6 -18 9 -16 25 16 21 41 31 65
26 65 -1 0 -15 -14 -30 -30z"/>
<path d="M1703 1694 c20 -39 47 -63 47 -42 0 8 -14 27 -31 44 l-31 29 15 -31z"/>
<path d="M2440 1676 c0 -17 25 -54 33 -49 5 3 7 -4 3 -18 -6 -22 -6 -22 5 -5
10 16 9 21 -5 31 -9 7 -16 17 -16 23 0 6 -4 14 -10 17 -5 3 -10 4 -10 1z"/>
<path d="M2513 1638 c0 -18 5 -39 11 -47 6 -7 12 -30 13 -50 1 -23 -1 -31 -7
-22 -6 11 -9 9 -12 -10 -4 -22 -5 -23 -12 -4 -14 40 -32 70 -39 67 -4 -1 -19
10 -32 25 -22 25 -24 26 -25 8 0 -11 -3 -37 -6 -57 -5 -26 -3 -38 5 -38 7 0 9
9 5 26 -5 21 -4 25 6 19 8 -5 11 -4 6 3 -3 6 -2 13 3 16 13 8 77 -92 73 -113
-3 -12 2 -10 18 7 11 12 24 22 28 22 4 0 8 20 10 45 2 36 -1 47 -18 57 -11 7
-20 20 -20 28 0 13 1 13 10 0 14 -22 11 1 -4 28 -12 23 -13 23 -13 -10z"/>
<path d="M1781 1537 c-1 -33 -4 -64 -7 -68 -2 -4 0 -10 6 -14 5 -3 12 7 16 22
3 15 9 42 14 59 6 24 4 35 -10 46 -16 14 -17 11 -19 -45z"/>
<path d="M1901 1564 c-27 -34 -27 -88 -1 -114 11 -11 20 -24 20 -30 0 -5 12
-13 28 -16 15 -4 33 -11 40 -17 16 -13 24 -4 16 17 -4 9 -13 15 -20 12 -19 -7
-29 14 -13 26 10 6 4 7 -18 3 -17 -3 -34 -2 -37 3 -3 5 8 12 25 16 24 5 30 10
27 27 -4 28 -38 35 -38 9 0 -10 -4 -22 -10 -25 -21 -13 -9 47 14 70 19 19 34
24 75 23 28 0 53 -4 56 -8 3 -4 -5 -6 -17 -3 -20 4 -21 3 -5 -7 20 -13 23 -30
4 -30 -7 0 -14 -13 -15 -30 -2 -21 2 -30 13 -30 22 0 18 -11 -12 -37 -27 -21
-27 -22 -6 -23 12 0 33 12 47 27 20 21 24 34 20 67 -3 30 -2 37 6 26 5 -8 10
-10 10 -5 0 12 -29 57 -44 67 -6 4 -41 8 -78 8 -60 0 -69 -3 -87 -26z"/>
<path d="M1550 1540 c-5 -32 -2 -102 5 -108 4 -4 6 0 4 8 -1 8 1 23 6 33 4 10
3 32 -3 50 -5 18 -11 25 -12 17z"/>
<path d="M2468 1420 c-10 -9 -18 -21 -18 -26 0 -13 -47 -16 -55 -4 -8 13 -25
13 -25 0 0 -13 74 -50 100 -50 14 0 20 7 20 21 0 11 4 29 10 39 14 27 -10 43
-32 20z"/>
<path d="M754 1379 c-4 -7 0 -9 14 -5 15 5 29 -1 51 -21 57 -53 91 -78 111
-79 11 -1 29 -9 39 -18 20 -18 36 -22 26 -6 -3 6 -1 10 4 10 6 0 11 -6 12 -12
1 -7 2 -20 3 -28 2 -8 3 -23 4 -32 1 -10 8 -18 16 -18 8 0 20 -16 27 -35 7
-19 17 -35 21 -35 4 0 8 2 8 5 0 9 -24 61 -36 75 -16 21 -29 94 -15 85 6 -3
11 -12 11 -19 0 -7 9 -25 20 -39 11 -14 20 -37 20 -52 0 -14 6 -33 14 -40 12
-12 15 -11 20 8 9 33 8 37 -9 37 -8 0 -15 5 -15 11 0 5 5 7 11 3 7 -4 9 1 7
12 -2 11 -11 18 -21 18 -9 -1 -17 5 -17 12 0 11 7 13 27 8 27 -7 27 -7 11 18
-16 25 -16 26 1 31 15 4 20 -3 24 -37 3 -22 4 -61 1 -86 l-4 -45 12 38 c14 42
28 40 28 -4 0 -15 5 -31 10 -34 17 -10 11 54 -7 81 -14 21 -14 27 -3 34 8 5
17 7 21 4 4 -2 11 1 15 7 5 9 -1 10 -19 5 -20 -5 -29 -2 -37 13 -7 13 -7 22 0
26 5 3 10 1 10 -4 0 -20 17 -11 28 14 15 33 15 40 -1 27 -28 -23 -276 -37
-284 -15 -6 16 -121 93 -139 93 -7 0 -16 -5 -20 -11z"/>
<path d="M1360 1371 c8 -16 6 -22 -7 -30 -16 -9 -16 -10 5 -11 20 0 21 -2 10
-20 -7 -11 -29 -23 -48 -27 -29 -5 -31 -7 -15 -14 11 -4 30 -5 43 -2 17 4 21
2 16 -10 -3 -8 0 -18 6 -22 7 -4 10 4 8 22 -1 16 1 34 5 40 12 19 -4 93 -20
93 -10 0 -11 -4 -3 -19z"/>
<path d="M1677 1370 c-9 -11 -17 -27 -17 -35 0 -8 -4 -15 -9 -15 -5 0 -7 -9
-4 -20 5 -19 7 -19 23 -5 9 8 20 12 25 8 4 -5 3 2 -3 13 -6 12 -8 24 -5 28 5
5 13 46 9 46 -1 0 -9 -9 -19 -20z"/>
<path d="M1262 1373 c-6 -2 -10 -8 -7 -13 3 -5 -1 -14 -8 -22 -8 -7 -19 -25
-26 -38 l-12 -25 24 26 c13 14 32 31 43 37 12 7 14 12 5 12 -11 0 -11 3 -1 15
12 15 6 18 -18 8z"/>
<path d="M1914 1360 c0 -23 6 -24 41 -8 34 15 32 23 -8 26 -27 2 -33 -1 -33
-18z"/>
<path d="M2037 1373 c-22 -6 -12 -23 14 -23 10 0 19 7 19 15 0 15 -2 16 -33 8z"/>
<path d="M756 1352 c-6 -10 -1 -60 7 -68 3 -3 3 -12 1 -19 -3 -7 0 -16 5 -20
6 -3 8 -12 5 -18 -5 -8 -3 -8 6 0 15 14 21 53 8 53 -4 0 -7 3 -7 8 8 46 -9 89
-25 64z"/>
<path d="M1975 1330 c-3 -5 -17 -10 -30 -10 -12 0 -25 -7 -29 -15 -3 -8 -17
-20 -32 -25 -15 -6 -24 -13 -21 -16 10 -11 57 6 57 20 0 7 6 13 13 14 6 1 37
6 67 10 l55 7 -34 13 c-41 14 -38 14 -46 2z"/>
<path d="M2066 1312 c-3 -6 0 -13 6 -15 10 -4 10 -6 1 -6 -7 -1 -13 -6 -13
-12 0 -7 10 -9 25 -7 14 3 25 1 25 -4 0 -5 5 -6 10 -3 14 8 13 25 -2 25 -6 0
-19 7 -29 16 -10 9 -19 11 -23 6z"/>
<path d="M1760 1288 c0 -7 7 -21 14 -31 16 -21 86 -36 86 -18 0 6 -10 11 -23
11 -12 0 -35 11 -50 25 -15 15 -27 20 -27 13z"/>
<path d="M1540 1278 c-1 -7 -3 -30 -6 -50 -4 -27 -1 -42 10 -53 8 -9 12 -23 9
-33 -3 -9 -3 -14 1 -10 11 10 19 71 8 64 -5 -3 -7 15 -4 44 3 33 1 50 -7 50
-6 0 -11 -6 -11 -12z"/>
<path d="M1255 1270 c3 -6 1 -10 -4 -10 -6 0 -11 -4 -11 -8 0 -9 100 -35 107
-28 3 2 -10 7 -27 11 -17 4 -34 13 -36 20 -3 7 -12 16 -20 19 -9 3 -12 1 -9
-4z"/>
<path d="M2176 1254 c-15 -14 -25 -28 -21 -32 3 -4 12 0 18 9 7 9 22 14 35 13
24 -4 29 8 10 24 -10 7 -21 3 -42 -14z"/>
<path d="M1630 1238 c0 -5 6 -8 14 -5 8 3 16 1 18 -4 2 -6 11 -7 21 -4 9 4 15
10 12 15 -7 11 -65 10 -65 -2z"/>
<path d="M1915 1233 c-11 -3 -30 -13 -42 -23 -28 -22 -14 -38 35 -42 27 -2 31
-6 35 -38 8 -63 7 -317 -1 -362 -5 -24 -5 -53 0 -63 7 -20 8 -20 6 0 -2 26 12
87 24 102 11 14 13 95 6 234 -5 91 -9 110 -27 128 -23 23 -28 57 -8 64 15 7
-2 6 -28 0z"/>
<path d="M2000 1238 c1 -2 7 -25 14 -53 l13 -50 23 38 c12 20 24 37 27 37 2 0
1 -5 -3 -12 -4 -7 -3 -8 4 -4 22 13 12 33 -19 40 -32 6 -59 8 -59 4z"/>
<path d="M890 1210 c-14 -11 -37 -22 -52 -25 -16 -4 -28 -11 -28 -16 0 -11 27
-12 32 -1 2 5 21 15 43 24 21 8 41 21 43 27 5 16 -10 13 -38 -9z"/>
<path d="M1495 1202 c-11 -9 -29 -28 -40 -40 l-20 -24 32 18 c28 17 59 52 51
59 -2 2 -12 -4 -23 -13z"/>
<path d="M1331 1188 c-11 -18 -11 -22 3 -30 14 -8 66 -97 66 -113 0 -15 -17
-1 -32 25 -16 29 -20 30 -86 30 -91 0 -96 -6 -116 -130 -5 -32 -18 -60 -27
-60 -5 0 -9 -7 -9 -15 0 -8 2 -15 5 -15 12 0 54 56 55 72 0 9 5 20 10 23 8 5
7 11 -1 21 -12 15 -7 18 26 14 18 -2 18 -1 -3 17 -22 17 -23 53 -1 53 4 0 6
-6 3 -14 -3 -8 -1 -17 5 -21 7 -4 11 4 11 19 0 18 4 24 15 20 18 -7 20 -35 3
-54 -11 -12 -10 -12 5 -1 9 7 17 24 17 36 0 18 4 21 25 17 28 -5 56 -40 73
-89 9 -27 8 -33 -4 -33 -7 0 -14 5 -14 10 0 6 -15 10 -32 11 -18 0 -42 4 -53
9 -16 7 -13 9 16 9 20 1 42 8 49 16 8 9 9 15 2 15 -6 0 -14 -4 -17 -10 -3 -5
-11 -10 -16 -10 -6 0 -7 5 -4 10 9 15 0 12 -42 -12 l-38 -23 30 -6 c17 -4 24
-7 17 -8 -7 0 -10 -6 -6 -12 4 -6 19 -9 37 -5 23 5 34 1 48 -16 11 -11 19 -25
19 -30 0 -4 6 -8 14 -8 13 0 29 97 30 185 1 42 -28 94 -53 95 -7 0 -11 6 -7
15 8 23 -7 18 -23 -7z"/>
<path d="M2320 1190 c6 -11 15 -18 21 -15 5 4 9 1 9 -5 0 -6 5 -8 10 -5 17 10
11 21 -15 33 -35 16 -37 15 -25 -8z"/>
<path d="M1658 1193 c-10 -2 -19 -14 -19 -26 -3 -62 12 -92 30 -58 8 14 8 21
1 21 -15 0 -12 26 5 40 16 13 20 31 8 29 -5 -1 -16 -3 -25 -6z"/>
<path d="M2460 1197 c0 -2 11 -18 25 -37 18 -24 25 -29 25 -16 0 26 -19 56
-35 56 -8 0 -15 -1 -15 -3z"/>
<path d="M1018 1144 c-7 -7 3 -53 13 -60 5 -3 9 8 9 25 0 28 -11 46 -22 35z"/>
<path d="M790 1088 c-16 -47 -8 -97 27 -167 31 -63 52 -69 88 -25 20 24 60 33
67 15 2 -5 18 4 36 20 21 19 28 31 20 33 -42 13 -77 20 -105 20 -30 1 -31 0
-16 -17 9 -9 24 -15 33 -12 10 3 25 2 34 -1 26 -10 0 -24 -46 -24 -27 0 -40
-6 -48 -20 -12 -22 -18 -24 -38 -12 -17 11 28 103 65 130 l28 21 -27 1 c-32 0
-53 -19 -69 -65 -13 -36 -29 -47 -29 -20 0 8 9 37 20 65 24 60 17 67 -9 9 -16
-35 -20 -38 -25 -22 -8 27 3 54 31 76 30 24 29 37 -1 35 -18 -2 -27 -11 -36
-40z"/>
<path d="M1147 1083 c-10 -10 -8 -53 2 -53 5 0 11 14 13 30 4 29 -1 37 -15 23z"/>
<path d="M963 1067 c-20 -11 -21 -14 -7 -46 13 -32 16 -33 57 -29 35 4 43 2
43 -11 -1 -9 3 -17 8 -18 5 -1 14 -12 20 -24 6 -12 17 -24 24 -25 7 -1 8 0 2
3 -5 2 -10 14 -10 25 0 11 -9 31 -20 45 -11 14 -20 34 -20 43 0 35 -60 58 -97
37z m34 -22 c-4 -8 -2 -17 3 -20 6 -4 10 3 10 14 0 14 5 19 16 14 26 -10 13
-48 -18 -51 -32 -4 -60 34 -37 49 21 13 32 11 26 -6z"/>
<path d="M2506 1070 c6 -8 11 -34 10 -58 0 -23 2 -42 5 -42 4 0 9 -20 12 -45
4 -25 16 -63 27 -85 21 -42 25 -54 12 -46 -6 4 -3 -41 11 -159 1 -11 9 -21 18
-23 13 -2 15 6 12 50 -2 29 -8 66 -14 82 -5 16 -9 44 -9 61 0 18 -7 38 -15 45
-9 8 -15 30 -15 57 0 24 -9 63 -20 85 -23 48 -24 52 -10 43 19 -12 10 12 -12
31 -13 10 -18 12 -12 4z"/>
<path d="M1702 1044 c-26 -18 -35 -54 -14 -54 8 0 12 3 9 6 -13 13 14 43 40
46 26 3 26 4 6 9 -12 4 -30 1 -41 -7z"/>
<path d="M2443 943 c-15 -5 -7 -61 11 -81 10 -10 12 -3 11 32 -1 49 -4 56 -22
49z"/>
<path d="M1308 887 c12 -7 20 -16 17 -19 -3 -3 7 -3 22 0 l28 5 -30 13 c-39
17 -67 17 -37 1z"/>
<path d="M1470 879 c0 -5 -4 -7 -10 -4 -5 3 -10 1 -10 -4 0 -6 8 -11 18 -11
10 0 23 -5 30 -12 9 -9 9 -5 0 15 -13 27 -28 36 -28 16z"/>
<path d="M1105 846 c-29 -15 -35 -21 -22 -24 10 -2 25 2 33 8 9 8 29 10 54 6
25 -4 40 -2 40 4 0 5 -10 10 -23 10 -13 0 -27 4 -32 8 -6 4 -28 -1 -50 -12z"/>
<path d="M1425 841 c-18 -7 -17 -8 7 -14 15 -4 33 -4 41 -1 8 3 17 -2 20 -10
7 -17 37 -22 37 -7 0 7 -74 43 -83 40 -1 0 -11 -4 -22 -8z"/>
<path d="M2323 799 c4 -15 -1 -23 -21 -31 -15 -6 -30 -11 -34 -10 -4 1 -12 -8
-19 -19 -13 -26 5 -54 20 -30 7 11 9 11 14 0 3 -8 6 1 6 19 1 17 6 32 12 32 5
0 7 -6 4 -12 -4 -7 3 -2 14 12 22 27 28 60 10 60 -7 0 -9 -9 -6 -21z"/>
<path d="M798 798 c-7 -16 -20 -25 -105 -68 -50 -26 -55 -38 -13 -32 23 3 30
0 30 -13 0 -9 9 -19 20 -22 11 -3 20 -10 20 -15 0 -5 5 -6 11 -2 8 5 8 9 -1
14 -16 10 -3 33 13 24 7 -3 4 1 -6 9 -18 15 -18 15 1 21 24 8 45 46 40 77 -2
19 -5 21 -10 7z"/>
<path d="M1997 790 c-4 -14 -6 -38 -6 -55 1 -24 3 -21 10 15 10 49 7 80 -4 40z"/>
<path d="M1460 796 c0 -2 16 -16 35 -30 32 -24 35 -25 35 -8 0 10 -11 24 -25
30 -26 12 -45 15 -45 8z"/>
<path d="M2353 793 c4 -3 2 -12 -3 -18 -7 -8 -4 -17 8 -28 16 -15 18 -15 18 3
0 10 -4 16 -9 13 -5 -3 -6 4 -2 16 4 14 2 21 -6 21 -7 0 -9 -3 -6 -7z"/>
<path d="M2430 788 c0 -8 9 -24 19 -35 11 -12 17 -24 13 -29 -4 -4 -2 -4 4 -1
7 4 14 -2 17 -13 3 -11 10 -20 16 -20 15 0 -20 69 -48 94 -16 15 -21 16 -21 4z"/>
<path d="M1481 725 c34 -36 65 -65 67 -65 6 0 -10 24 -32 48 -12 13 -19 27
-17 30 5 8 -56 52 -72 52 -5 0 19 -29 54 -65z"/>
<path d="M1116 726 c8 -27 17 -52 21 -55 3 -3 3 2 0 12 -4 10 -7 26 -7 36 0 9
-7 26 -15 37 -12 17 -12 13 1 -30z"/>
<path d="M1439 727 c6 -8 8 -17 4 -20 -3 -4 2 -7 13 -7 16 0 17 -2 4 -10 -8
-5 -10 -10 -5 -10 6 0 3 -5 -5 -10 -13 -8 -12 -10 3 -10 9 0 17 5 17 10 0 6 8
10 17 10 13 0 10 7 -12 30 -28 29 -58 43 -36 17z"/>
<path d="M622 682 c-7 -2 -12 -10 -12 -18 0 -8 -4 -14 -8 -14 -20 0 -53 -83
-59 -147 -3 -38 -6 -69 -8 -71 -1 -1 -64 -6 -141 -12 -187 -12 -294 -29 -301
-47 -3 -8 -4 -16 -1 -18 2 -2 41 -7 87 -11 80 -7 83 -6 77 13 -9 27 20 54 30
28 4 -10 1 -21 -7 -25 -26 -17 2 -23 138 -28 142 -5 190 -17 223 -57 20 -24
65 -45 96 -45 20 0 24 3 16 13 -18 21 27 106 63 122 l30 13 -28 1 c-32 1 -77
-38 -77 -67 0 -19 -42 -66 -52 -57 -13 13 21 100 47 123 24 20 35 23 69 17 23
-3 52 -7 66 -9 130 -15 151 -20 171 -37 12 -10 28 -19 34 -19 7 0 25 -10 40
-22 26 -20 27 -20 21 -2 -10 32 29 83 81 105 46 19 103 20 166 3 10 -4 20 1
24 13 13 34 72 109 95 120 13 7 45 21 71 32 l48 20 74 -33 c141 -65 157 -56
28 15 -81 44 -160 62 -149 33 3 -9 1 -12 -4 -9 -14 9 -82 -16 -100 -36 -8 -9
-23 -19 -33 -22 -10 -4 -15 -12 -11 -18 3 -6 -5 -3 -20 6 -14 10 -26 13 -26 7
0 -5 -19 -13 -42 -17 -37 -7 -39 -9 -16 -12 15 -3 37 1 49 7 16 9 24 9 33 0 8
-8 7 -10 -4 -6 -9 3 -23 -5 -34 -21 -11 -14 -14 -23 -8 -19 7 4 20 3 29 -3 15
-8 16 -10 3 -15 -33 -10 -149 -16 -154 -7 -3 5 4 7 16 4 19 -4 20 -3 8 7 -13
9 -12 11 5 9 11 -1 31 0 45 1 22 2 22 3 -7 10 -53 12 -83 2 -84 -29 0 -14 -3
-20 -6 -13 -5 14 -53 17 -53 3 0 -5 10 -12 23 -14 19 -4 19 -4 -5 -6 -14 0
-29 5 -32 12 -3 6 -3 0 0 -15 5 -21 2 -28 -9 -28 -9 0 -19 -9 -22 -20 -3 -11
-13 -20 -22 -20 -11 0 -14 8 -11 30 3 19 1 29 -6 27 -6 -2 -10 -12 -10 -21 2
-22 -19 -20 -90 8 -72 28 -226 35 -248 12 -39 -41 -48 -59 -48 -96 0 -48 -8
-50 -35 -10 -11 16 -29 31 -41 34 -11 3 -26 16 -32 28 l-11 23 0 -23 c-1 -38
-26 -19 -29 22 -3 31 0 38 17 43 16 4 19 11 14 35 -4 22 -2 29 8 27 8 -2 29 5
47 14 18 10 42 15 52 12 15 -5 18 -3 14 9 -8 22 -64 17 -85 -6 -20 -22 -39
-23 -39 -3 0 8 4 15 9 15 5 0 11 9 14 20 3 11 14 20 24 20 18 0 39 19 58 50 4
8 -3 5 -16 -6 -29 -26 -69 -40 -69 -24 0 6 7 13 15 16 8 4 13 9 11 13 -2 3 6
15 18 27 19 18 25 19 54 7 17 -7 32 -18 32 -23 0 -16 17 -11 24 7 4 10 4 14 0
10 -4 -4 -14 -1 -22 5 -19 17 -75 35 -90 30z m-216 -328 c-3 -9 -10 -12 -16
-9 -14 9 -12 53 3 58 13 4 22 -26 13 -49z m92 18 c3 -27 0 -32 -17 -32 -16 0
-21 6 -21 28 0 53 33 56 38 4z m-158 -7 c-9 -11 -16 -13 -23 -6 -7 7 -6 15 3
26 9 11 16 13 23 6 7 -7 6 -15 -3 -26z"/>
<path d="M1410 630 c0 -22 5 -23 35 -9 19 9 18 9 -2 5 -13 -2 -23 -2 -23 0 0
3 10 9 23 14 21 8 21 9 -5 9 -22 1 -28 -4 -28 -19z"/>
<path d="M2256 625 c-22 -8 -43 -12 -48 -9 -4 3 -8 -2 -8 -10 0 -11 9 -16 26
-16 14 0 49 -16 78 -35 29 -19 59 -35 67 -35 8 1 -1 9 -20 19 -48 26 -21 37
28 11 22 -11 52 -32 66 -47 30 -33 33 -17 5 30 -17 29 -29 36 -89 50 -38 10
-77 17 -87 18 -18 0 -17 1 1 9 18 8 103 4 133 -6 7 -2 11 0 7 5 -5 9 -24 14
-92 26 -16 2 -46 -2 -67 -10z"/>
<path d="M791 602 c-12 -22 -11 -23 7 -18 11 4 40 11 63 16 l44 9 -47 -3 c-29
-2 -49 1 -51 8 -2 6 -9 0 -16 -12z"/>
<path d="M922 605 c-7 -8 -9 -15 -5 -16 4 0 17 -2 27 -4 11 -2 38 -5 60 -7 34
-2 41 1 44 17 3 15 1 17 -8 8 -9 -9 -22 -8 -52 3 -49 17 -50 17 -66 -1z"/>
<path d="M1385 590 c-11 -5 -14 -9 -7 -9 7 -1 11 -5 8 -10 -3 -5 1 -12 10 -15
28 -11 37 -7 23 10 -12 15 -11 16 9 10 17 -6 21 -4 16 8 -7 17 -28 19 -59 6z"/>
<path d="M2570 591 c0 -14 25 -31 59 -41 17 -5 31 -7 31 -6 0 5 -78 56 -85 56
-3 0 -5 -4 -5 -9z"/>
<path d="M1961 550 c1 -14 5 -36 9 -50 7 -23 8 -22 9 10 0 19 -4 42 -9 50 -8
12 -10 10 -9 -10z"/>
<path d="M970 545 c8 -10 7 -15 -2 -19 -7 -3 -1 -4 15 -1 20 4 27 1 27 -10 0
-13 -11 -19 -31 -17 -3 1 -25 2 -48 3 -41 3 -44 12 -6 23 11 3 7 3 -10 0 -16
-4 -45 -7 -62 -8 -18 0 -33 -4 -33 -7 0 -11 30 -19 94 -26 34 -3 72 -13 86
-21 14 -9 28 -17 32 -17 3 0 10 -3 14 -7 16 -16 34 -7 34 17 0 26 -9 32 -26
15 -13 -13 -44 -2 -44 15 0 7 10 11 28 9 15 -2 19 -1 10 2 -9 3 -23 16 -32 28
-8 13 -24 26 -36 29 -17 4 -19 3 -10 -8z"/>
<path d="M1302 549 c-13 -5 -36 -7 -50 -4 -21 4 -23 3 -8 -3 27 -12 5 -25 -27
-16 -14 3 -28 1 -31 -5 -5 -7 5 -11 28 -11 19 0 42 -3 52 -7 12 -4 15 -2 12 8
-3 9 9 20 36 31 23 9 34 17 26 17 -8 0 -25 -4 -38 -10z"/>
<path d="M2686 504 c-25 -19 -43 -40 -40 -46 4 -7 10 -5 16 6 13 23 33 20 48
-9 15 -28 8 -44 -12 -27 -7 6 -29 12 -48 14 -31 3 -35 6 -36 31 -1 20 5 31 20
38 15 6 6 7 -28 4 -27 -3 -50 -6 -51 -7 -2 -2 -6 -29 -10 -61 -6 -57 -6 -58
14 -47 16 8 37 8 78 0 31 -5 96 -10 144 -10 78 0 91 3 109 22 24 26 21 32 -13
19 -20 -8 -28 -6 -43 10 -16 18 -28 18 -30 -2 -1 -5 -2 -13 -3 -19 -1 -13 -41
-13 -41 0 0 6 -11 21 -25 34 -30 28 -31 35 -7 52 26 20 38 17 76 -22 19 -20
41 -34 48 -32 8 3 5 9 -10 17 -12 6 -22 16 -22 21 0 19 -40 50 -64 50 -13 0
-44 -16 -70 -36z"/>
<path d="M730 521 c0 -9 -41 -82 -67 -118 -10 -15 -11 -23 -4 -23 6 0 16 10
22 23 5 12 28 35 50 50 22 16 36 33 33 39 -5 7 -12 4 -21 -7 -12 -17 -13 -17
-13 -2 0 10 7 20 15 23 8 4 12 10 9 15 -7 12 -24 12 -24 0z"/>
<path d="M2065 510 c-4 -14 -13 -29 -20 -35 -6 -5 -18 -29 -25 -52 -11 -35
-18 -43 -37 -43 -12 0 -23 -5 -23 -11 0 -5 -4 -8 -9 -4 -5 3 -12 1 -16 -4 -8
-14 -35 -3 -74 33 l-35 31 23 -30 c26 -34 11 -47 -21 -19 -16 15 -20 16 -18 4
4 -26 0 -38 -16 -55 -9 -8 -18 -33 -21 -55 -3 -22 -9 -37 -13 -35 -16 10 -32
-25 -25 -54 3 -16 2 -32 -4 -35 -14 -9 -41 4 -41 20 0 8 -6 11 -16 7 -12 -4
-15 0 -14 18 1 13 1 29 0 34 -1 6 -1 33 -1 60 1 44 -1 47 -10 25 -9 -22 -8
-100 3 -165 2 -17 -3 -21 -34 -23 -29 -2 -38 0 -38 13 0 13 -5 12 -30 -6 -35
-26 -48 -20 -32 16 13 28 5 66 -9 43 -5 -7 -9 -25 -9 -39 0 -26 -2 -27 -52
-25 -50 1 -53 3 -56 29 -2 15 -7 25 -12 22 -4 -3 -13 2 -20 10 -7 8 -25 15
-41 15 -29 0 -40 22 -19 35 6 3 10 12 10 18 0 7 -11 -1 -24 -18 -22 -28 -25
-29 -52 -16 -16 8 -39 13 -51 12 -12 -1 -26 6 -32 16 -9 16 -10 16 -11 -6 0
-22 -24 -50 -43 -51 -4 0 -12 10 -17 22 -9 23 -9 23 -9 2 -1 -29 -18 -34 -108
-29 -75 3 -76 3 -23 -6 66 -11 167 -2 197 17 17 11 38 12 105 4 104 -13 106
-14 118 -44 15 -40 52 -57 137 -63 86 -6 242 19 255 40 4 6 10 31 14 54 4 28
14 47 29 57 13 9 25 28 27 43 3 25 8 28 44 31 26 2 45 -2 53 -11 26 -33 170
160 158 212 -2 11 -6 8 -12 -9z"/>
<path d="M1747 467 c16 -25 30 -43 32 -42 6 7 -34 79 -47 83 -7 2 0 -16 15
-41z"/>
<path d="M795 473 c15 -16 58 -22 80 -13 19 8 19 9 -1 9 -12 1 -37 4 -55 7
-23 5 -31 3 -24 -3z"/>
<path d="M597 413 c-13 -13 -7 -43 7 -37 8 3 14 14 13 25 -1 20 -9 24 -20 12z"/>
<path d="M1363 392 c25 -28 10 -33 -28 -11 -18 11 -36 16 -39 11 -3 -5 -17 -7
-30 -5 -14 3 -35 -2 -48 -11 -22 -16 -20 -17 55 -13 53 3 77 1 74 -7 -4 -12
34 -46 45 -39 15 9 9 81 -8 87 -29 11 -37 6 -21 -12z"/>
<path d="M2384 359 c4 -19 1 -29 -11 -33 -14 -6 -14 -8 3 -22 10 -9 13 -12 5
-8 -11 5 -13 3 -8 -10 5 -14 3 -15 -10 -7 -14 7 -20 3 -30 -21 -8 -17 -12 -32
-11 -34 2 -1 35 5 73 14 62 13 67 16 44 24 -28 9 -52 49 -43 72 3 8 1 23 -6
33 -10 16 -11 14 -6 -8z"/>
<path d="M808 333 c-20 -22 -40 -93 -27 -93 5 0 9 8 9 18 0 20 29 64 30 46 0
-16 60 -9 71 7 13 21 11 29 -7 29 -10 0 -14 -6 -11 -15 4 -8 1 -17 -5 -21 -7
-4 -8 -3 -4 5 6 9 0 10 -19 5 -24 -6 -27 -4 -20 15 8 26 3 27 -17 4z"/>
<path d="M926 336 c-17 -14 -28 -46 -17 -46 21 0 40 13 34 23 -4 6 0 8 10 4 9
-3 31 1 49 9 l33 15 -32 -4 c-18 -2 -33 -1 -33 3 0 11 -29 8 -44 -4z"/>
<path d="M2504 324 c4 -28 3 -31 -14 -27 -11 3 -20 1 -20 -5 0 -17 19 -24 46
-18 18 5 24 13 24 33 0 14 -3 23 -7 20 -3 -4 -12 1 -20 11 -13 15 -14 14 -9
-14z"/>
<path d="M2191 269 c-15 -43 -14 -65 5 -94 9 -13 13 -28 10 -34 -8 -12 -70 -5
-74 9 -2 6 -9 7 -15 3 -7 -4 -17 -8 -23 -9 -6 -1 -21 -5 -33 -9 -26 -8 -28 8
-3 33 20 20 27 68 11 78 -6 4 -9 -1 -8 -12 5 -30 -10 -48 -27 -33 -12 10 -18
9 -32 -5 -16 -16 -16 -17 1 -10 10 3 17 1 17 -5 0 -7 -7 -14 -15 -17 -8 -4
-15 -13 -15 -21 0 -8 -7 -13 -17 -11 -28 5 -29 68 -2 120 l21 43 -31 -29 c-30
-29 -31 -29 -31 -7 0 12 -4 19 -10 16 -5 -3 -10 -31 -10 -61 0 -68 18 -88 95
-104 42 -9 78 -9 148 0 109 14 167 27 167 40 0 14 -18 21 -25 10 -9 -14 -45
-12 -45 3 0 8 -4 7 -10 -3 -9 -14 -11 -13 -14 9 0 5 -4 13 -8 17 -5 4 -8 16
-8 27 0 16 3 17 15 7 9 -8 15 -8 15 -2 0 6 -9 14 -20 17 -21 7 -27 30 -10 40
12 8 13 25 1 25 -5 0 -14 -14 -20 -31z"/>
<path d="M814 274 c3 -7 -7 -22 -21 -34 l-26 -20 24 0 c13 0 34 -3 45 -6 19
-5 22 -2 20 20 -1 24 -2 25 -15 9 -12 -16 -13 -15 -8 13 4 23 2 31 -9 31 -8 0
-13 -6 -10 -13z"/>
<path d="M1382 228 c-15 -15 -16 -38 -2 -38 12 0 23 25 18 40 -2 7 -7 7 -16
-2z"/>
</g>
</svg>
